<?xml version="1.0" encoding="UTF-8" standalone="no"?>
<!-- Creator: CorelDRAW X7 -->

<svg
   xmlns:dc="http://purl.org/dc/elements/1.1/"
   xmlns:cc="http://creativecommons.org/ns#"
   xmlns:rdf="http://www.w3.org/1999/02/22-rdf-syntax-ns#"
   xmlns:svg="http://www.w3.org/2000/svg"
   xmlns="http://www.w3.org/2000/svg"
   xmlns:sodipodi="http://sodipodi.sourceforge.net/DTD/sodipodi-0.dtd"
   xmlns:inkscape="http://www.inkscape.org/namespaces/inkscape"
   xml:space="preserve"
   width="29.653822mm"
   height="39.707466mm"
   version="1.1"
   style="clip-rule:evenodd;fill-rule:evenodd;image-rendering:optimizeQuality;shape-rendering:geometricPrecision;text-rendering:geometricPrecision"
   viewBox="0 0 2965.3823 3970.7467"
   id="svg3408"
   inkscape:version="0.91 r13725"
   sodipodi:docname="marker11.svg"><metadata
     id="metadata3423"><rdf:RDF><cc:Work
         rdf:about=""><dc:format>image/svg+xml</dc:format><dc:type
           rdf:resource="http://purl.org/dc/dcmitype/StillImage" /><dc:title></dc:title></cc:Work></rdf:RDF></metadata><sodipodi:namedview
     pagecolor="#ffffff"
     bordercolor="#666666"
     borderopacity="1"
     objecttolerance="10"
     gridtolerance="10"
     guidetolerance="10"
     inkscape:pageopacity="0"
     inkscape:pageshadow="2"
     inkscape:window-width="1366"
     inkscape:window-height="711"
     id="namedview3421"
     showgrid="false"
     fit-margin-top="0"
     fit-margin-left="0"
     fit-margin-right="0"
     fit-margin-bottom="0"
     inkscape:zoom="3.8593912"
     inkscape:cx="52.536306"
     inkscape:cy="70.347883"
     inkscape:window-x="-4"
     inkscape:window-y="-4"
     inkscape:window-maximized="1"
     inkscape:current-layer="_723210848" /><defs
     id="defs3410"><style
       type="text/css"
       id="style3412"><![CDATA[
    .fil1 {fill:#02CC64}
    .fil0 {fill:#333333}
   ]]></style></defs><g
     id="Слой_x0020_1"
     transform="translate(-9349.3551,-10924.903)"><metadata
       id="CorelCorpID_0Corel-Layer" /><g
       id="_723210848"><path
         class="fil0"
         d="m 11840,11335 c -13,82 -68,363 -168,536 442,660 100,1462 -842,1556 l -86,-3 c -769,-16 -1180,-1124 -594,-1699 -81,-190 -125,-250 -252,-399 179,75 295,173 396,273 331,-202 534,-206 891,-127 243,-172 274,-151 561,-230 -777,-581 -1835,-341 -2245,535 -240,514 -171,847 39,1349 212,505 632,1160 1000,1575 179,203 307,279 511,72 445,-451 1191,-1581 1255,-2166 48,-438 -101,-995 -466,-1272 z"
         id="path3417"
         inkscape:connector-curvature="0"
         style="fill:#333333" /><path
         class="fil1"
         d="m 11021,11914 c 103,-42 142,-265 310,-311 -2,24 -253,459 -299,575 -51,127 -200,595 -244,660 -219,-278 -112,-1216 -890,-1512 488,597 752,1883 826,2062 75,53 77,54 127,0 117,-188 138,-653 222,-922 194,-628 189,-300 599,-595 79,-143 186,-474 171,-642 -349,27 -914,232 -822,685 z"
         id="path3419"
         inkscape:connector-curvature="0"
         style="fill:#02cc64" /></g></g></svg>